<svg width="16" height="17" viewBox="0 0 16 17" fill="none" xmlns="http://www.w3.org/2000/svg">
<path d="M15.0304 10.8595L13.8484 9.67748C13.5769 9.38519 13.4196 9.005 13.4052 8.60632V6.27932C13.4052 3.28745 11.4106 0.738831 7.86472 0.738831C4.31881 0.738831 2.32423 3.21358 2.32423 6.27932V8.86488C2.31739 9.09869 2.22546 9.32197 2.06567 9.4928L0.699021 10.8595C0.559834 10.9958 0.480177 11.1817 0.477402 11.3766V14.036C0.477402 14.2319 0.555232 14.4198 0.693771 14.5584C0.83231 14.6969 1.02021 14.7747 1.21613 14.7747H5.31609C5.41887 15.3762 5.73109 15.922 6.19751 16.3155C6.66393 16.709 7.25449 16.9248 7.86472 16.9248C8.47495 16.9248 9.06551 16.709 9.53193 16.3155C9.99835 15.922 10.3106 15.3762 10.4133 14.7747H14.5133C14.7092 14.7747 14.8971 14.6969 15.0357 14.5584C15.1742 14.4198 15.252 14.2319 15.252 14.036V11.3766C15.2493 11.1817 15.1696 10.9958 15.0304 10.8595Z" fill="white"/>
</svg>
